<svg width="22" height="20" viewBox="0 0 22 20" fill="none" xmlns="http://www.w3.org/2000/svg">
<path d="M9.79518 0.859824C10.095 -0.0604526 11.3969 -0.0604517 11.6968 0.859825L13.4479 6.23422C13.582 6.64585 13.9658 6.92443 14.3987 6.92443H20.0594C21.0288 6.92443 21.4312 8.16546 20.6462 8.73422L16.0713 12.0489C15.7198 12.3035 15.5728 12.7558 15.7072 13.1684L17.4558 18.5351C17.7558 19.4559 16.7025 20.2229 15.9183 19.6547L11.3327 16.3323C10.9827 16.0787 10.5093 16.0787 10.1593 16.3323L5.57372 19.6547C4.78946 20.2229 3.73617 19.4559 4.0362 18.5351L5.78477 13.1684C5.91922 12.7558 5.77214 12.3035 5.42068 12.0489L0.845809 8.73422C0.0608025 8.16546 0.463133 6.92443 1.43253 6.92443H7.09328C7.52621 6.92443 7.90997 6.64585 8.04409 6.23422L9.79518 0.859824Z" fill="#E5E5E5"/>
</svg>
